HIERARCHY
ROOT hip
{
  OFFSET 0 0 0
  CHANNELS 6 Xposition Yposition Zposition Zrotation Yrotation Xrotation
  JOINT abdomen
  {
    OFFSET 0 20.6881 -0.73152
    CHANNELS 3 Zrotation Xrotation Yrotation
    JOINT chest
    {
      OFFSET 0 11.7043 -0.48768
      CHANNELS 3 Zrotation Xrotation Yrotation
      JOINT neck
      {
        OFFSET 0 22.1894 -2.19456
        CHANNELS 3 Zrotation Xrotation Yrotation
        JOINT head
        {
          OFFSET -0.24384 7.07133 1.2192
          CHANNELS 3 Zrotation Xrotation Yrotation
          JOINT leftEye
          {
            OFFSET 4.14528 8.04674 8.04672
            CHANNELS 3 Zrotation Xrotation Yrotation
            End Site
            {
              OFFSET 1 0 0
            }
          }
          JOINT rightEye
          {
            OFFSET -3.6576 8.04674 8.04672
            CHANNELS 3 Zrotation Xrotation Yrotation
            End Site
            {
              OFFSET 1 0 0
            }
          }
        }
      }
      JOINT rCollar
      {
        OFFSET -2.68224 19.2634 -4.8768
        CHANNELS 3 Zrotation Xrotation Yrotation
        JOINT rShldr
        {
          OFFSET -8.77824 -1.95073 1.46304
          CHANNELS 3 Zrotation Xrotation Yrotation
          JOINT rForeArm
          {
            OFFSET -28.1742 -1.7115 0.48768
            CHANNELS 3 Zrotation Xrotation Yrotation
            JOINT rHand
            {
              OFFSET -22.5879 0.773209 7.07136
              CHANNELS 3 Zrotation Xrotation Yrotation
              JOINT rThumb1
              {
                OFFSET -1.2192 -0.487915 3.41376
                CHANNELS 3 Zrotation Xrotation Yrotation
                JOINT rThumb2
                {
                  OFFSET -3.37035 -0.52449 3.41376
                  CHANNELS 3 Zrotation Xrotation Yrotation
                  End Site
                  {
                    OFFSET -1.78271 -1.18214 1.43049
                  }
                }
              }
              JOINT rIndex1
              {
                OFFSET -7.75947 0.938293 5.60832
                CHANNELS 3 Zrotation Xrotation Yrotation
                JOINT rIndex2
                {
                  OFFSET -2.54057 -0.884171 1.56538
                  CHANNELS 3 Zrotation Xrotation Yrotation
                  End Site
                  {
                    OFFSET -1.62519 -0.234802 1.16502
                  }
                }
              }
              JOINT rMid1
              {
                OFFSET -8.24714 1.18213 3.41376
                CHANNELS 3 Zrotation Xrotation Yrotation
                JOINT rMid2
                {
                  OFFSET -3.10165 -0.590103 1.0647
                  CHANNELS 3 Zrotation Xrotation Yrotation
                  End Site
                  {
                    OFFSET -2.48547 -0.328903 0.83742
                  }
                }
              }
              JOINT rRing1
              {
                OFFSET -8.82822 0.546677 1.51678
                CHANNELS 3 Zrotation Xrotation Yrotation
                JOINT rRing2
                {
                  OFFSET -2.60934 -0.819778 -0.0198488
                  CHANNELS 3 Zrotation Xrotation Yrotation
                  End Site
                  {
                    OFFSET -2.33842 -0.294052 0.168128
                  }
                }
              }
              JOINT rPinky1
              {
                OFFSET -8.27202 -0.0477905 -0.4584
                CHANNELS 3 Zrotation Xrotation Yrotation
                JOINT rPinky2
                {
                  OFFSET -1.82734 -0.647385 -0.700984
                  CHANNELS 3 Zrotation Xrotation Yrotation
                  End Site
                  {
                    OFFSET -1.69225 -0.51767 -0.607171
                  }
                }
              }
            }
          }
        }
      }
      JOINT lCollar
      {
        OFFSET 2.68224 19.2634 -4.8768
        CHANNELS 3 Zrotation Xrotation Yrotation
        JOINT lShldr
        {
          OFFSET 8.77824 -1.95073 1.46304
          CHANNELS 3 Zrotation Xrotation Yrotation
          JOINT lForeArm
          {
            OFFSET 28.1742 -1.7115 0.48768
            CHANNELS 3 Zrotation Xrotation Yrotation
            JOINT lHand
            {
              OFFSET 22.5879 0.773209 7.07136
              CHANNELS 3 Zrotation Xrotation Yrotation
              JOINT lThumb1
              {
                OFFSET 1.2192 -0.487915 3.41376
                CHANNELS 3 Zrotation Xrotation Yrotation
                JOINT lThumb2
                {
                  OFFSET 3.37035 -0.52449 3.41376
                  CHANNELS 3 Zrotation Xrotation Yrotation
                  End Site
                  {
                    OFFSET 1.78271 -1.18214 1.43049
                  }
                }
              }
              JOINT lIndex1
              {
                OFFSET 7.75947 0.938293 5.60832
                CHANNELS 3 Zrotation Xrotation Yrotation
                JOINT lIndex2
                {
                  OFFSET 2.54057 -0.884171 1.56538
                  CHANNELS 3 Zrotation Xrotation Yrotation
                  End Site
                  {
                    OFFSET 1.62519 -0.234802 1.16502
                  }
                }
              }
              JOINT lMid1
              {
                OFFSET 8.24714 1.18213 3.41376
                CHANNELS 3 Zrotation Xrotation Yrotation
                JOINT lMid2
                {
                  OFFSET 3.10165 -0.590103 1.0647
                  CHANNELS 3 Zrotation Xrotation Yrotation
                  End Site
                  {
                    OFFSET 2.48547 -0.328903 0.83742
                  }
                }
              }
              JOINT lRing1
              {
                OFFSET 8.82822 0.546677 1.51678
                CHANNELS 3 Zrotation Xrotation Yrotation
                JOINT lRing2
                {
                  OFFSET 2.60934 -0.819778 -0.0198488
                  CHANNELS 3 Zrotation Xrotation Yrotation
                  End Site
                  {
                    OFFSET 2.33842 -0.294052 0.168128
                  }
                }
              }
              JOINT lPinky1
              {
                OFFSET 8.27202 -0.0477905 -0.4584
                CHANNELS 3 Zrotation Xrotation Yrotation
                JOINT lPinky2
                {
                  OFFSET 1.82734 -0.647385 -0.700984
                  CHANNELS 3 Zrotation Xrotation Yrotation
                  End Site
                  {
                    OFFSET 1.69225 -0.51767 -0.607171
                  }
                }
              }
            }
          }
        }
      }
    }
  }
  JOINT rButtock
  {
    OFFSET -8.77824 4.35084 1.2192
    CHANNELS 3 Zrotation Xrotation Yrotation
    JOINT rThigh
    {
      OFFSET 0 -1.70687 -2.19456
      CHANNELS 3 Zrotation Xrotation Yrotation
      JOINT rShin
      {
        OFFSET 0 -36.8199 0.73152
        CHANNELS 3 Zrotation Xrotation Yrotation
        JOINT rFoot
        {
          OFFSET 0.73152 -45.1104 -5.12064
          CHANNELS 3 Zrotation Xrotation Yrotation
          End Site
          {
            OFFSET -1.1221 -3.69964 12.103
          }
        }
      }
    }
  }
  JOINT lButtock
  {
    OFFSET 8.77824 4.35084 1.2192
    CHANNELS 3 Zrotation Xrotation Yrotation
    JOINT lThigh
    {
      OFFSET 0 -1.70687 -2.19456
      CHANNELS 3 Zrotation Xrotation Yrotation
      JOINT lShin
      {
        OFFSET 0 -36.8199 0.73152
        CHANNELS 3 Zrotation Xrotation Yrotation
        JOINT lFoot
        {
          OFFSET -0.73152 -45.1104 -5.12064
          CHANNELS 3 Zrotation Xrotation Yrotation
          End Site
          {
            OFFSET 1.1221 -3.69964 12.103
          }
        }
      }
    }
  }
}
MOTION
Frames:	4
Frame Time:	0.00833333
-52.5065 55.7322 39.7373 -165.240794 -72.63769 164.619432 0.212606 13.026628 -0.039292 0.283839 -11.908492 18.866454 -10.137787 26.572657 -96.984978 30.3503 22.847206 120.683046 0.000704 0.0 0.001946 0.000149 -0.0 -0.000704 -132.776073 52.552543 136.718076 73.906167 -34.121377 93.984153 178.047542 10.299993 31.094322 -127.207166 40.550634 113.746248 -85.829258 38.630257 47.955567 -106.144678 -9.948446 72.184934 12.215687 -21.784956 -5.120019 124.21995 -62.126519 64.384994 -125.643025 49.839361 115.273469 -7.268541 26.164958 6.333419 -145.122856 1.12069 -179.481982 -23.607746 -71.731004 -44.752235 -35.018875 -44.048068 -33.925812 -4.600579 -17.938245 -7.359912 157.797792 -22.115442 -165.467214 103.864187 -48.996661 79.163187 -108.728393 -26.527723 127.908112 155.491594 68.097151 -135.941829 7.759722 7.43862 -1.681862 102.59614 5.877249 -93.824655 2.756375 4.333013 -1.627508 178.248806 -34.213933 -106.373394 -78.538274 -80.918546 -49.688905 163.465971 -4.717653 -143.146702 -0.003749 0.876516 -0.276577 -6.844065 29.70975 -4.676147 -10.623182 35.012458 -9.12384 -14.756703 44.084662 -8.43659 0.001812 0.000175 0.002718 -27.780812 -32.782652 135.785234 85.161859 -72.321756 -166.704773 17.40992 -26.359075 55.915435 -0.0 -0.000542 -0.001937 59.99641 -40.503317 69.442011 46.096642 73.17207 102.600571 96.136711 56.920112 -176.763587
-52.6323 55.798700000000004 39.803 -164.544434 -72.363711 163.934794 0.207471 12.997181 10.962691 -1.685669 -11.77259 7.816867 10.514035 26.4606 118.517629 -28.242809 15.926001 -88.454762 0.000256 -0.0 -0.000381 0.000256 -0.0 -0.000381 0.118138 -0.714069 -0.157702 65.689634 15.221923 -1.177489 79.292929 51.982821 59.476668 -25.675463 -2.890534 4.572021 -168.13675 -5.815347 89.870306 17.409911 -59.64133 18.456324 -2.686917 4.226566 1.583777 -21.807251 34.843419 15.846951 -10.975861 25.789665 7.641238 -4.870872 21.331574 4.435698 -71.540538 -72.141732 -88.495584 12.038305 45.832729 2.669183 -159.757985 65.345307 -151.088215 -161.668626 53.382748 -147.496798 -4.239412 -44.74274 8.647873 -68.452553 10.974243 6.443902 -176.333523 12.550279 -55.514557 -157.826689 -32.19319 -141.122017 121.364182 30.328349 -71.95683 157.985548 -21.915234 -76.048492 -16.967363 -30.49372 5.897861 6.40468 26.67703 -7.364796 -0.541951 -1.58986 0.294319 42.074748 58.558147 -36.099284 -0.001393 0.063697 -0.020091 153.358801 20.3157 -168.899368 81.324556 -51.184681 79.740637 159.986807 55.892232 148.399502 179.99732 75.749865 0.001834 152.600519 37.964271 -62.238689 -94.514004 26.297175 -67.6234 -25.163632 64.031663 156.649724 179.999678 75.749865 -0.0 -136.831942 11.9794 -9.992012 -16.175944 65.784654 39.508704 -98.241813 -9.804415 21.136767
-52.7321 55.8455 39.8594 -163.754496 -72.165192 163.171008 1.098377 13.056367 -0.203575 0.080445 -11.967126 19.097993 10.96746 24.209392 104.854581 -28.579554 9.072048 -76.596124 -0.001254 -0.0 0.000389 -0.001137 0.0 -0.002035 3.542312 -62.053096 -13.038457 1.976828 -25.635121 -53.744364 -1.141633 -38.882066 -150.607121 -137.679347 32.695438 125.138739 -178.519048 -16.064372 89.475713 -122.761139 16.697793 59.306368 -0.328925 0.529366 0.187223 4.980949 9.078507 1.288611 -39.288755 53.366638 32.876675 0.103824 9.335828 1.59429 -0.000948 0.063763 0.020589 -155.411136 -1.038014 171.971228 -111.059647 -41.160594 -109.117582 69.945534 84.535431 -30.91284 149.905136 22.421815 -154.975451 -136.469972 -13.767374 179.681938 -38.563088 -18.748406 -108.49289 48.46193 75.873052 -35.291638 -93.028029 -51.083988 -40.501462 150.675742 0.160497 -113.306483 -2.325793 -3.867972 1.258318 -123.027825 -61.398234 -64.894748 167.375018 -28.008794 -145.267736 164.114608 -7.033248 -143.196765 71.924446 72.972772 -89.772561 77.295346 -82.49527 94.42295 77.070171 -51.58765 75.530064 125.667439 -30.732746 124.69339 179.995032 75.748597 0.003399 152.449512 36.871037 -138.994471 -89.531987 -55.571894 -0.157475 18.970878 -36.143533 75.468448 0.000255 -0.001751 -0.000328 61.237776 -41.273378 143.524108 67.07338 7.906767 -110.957937 84.288061 18.993677 -26.171372
-52.81249999999999 55.8751 39.9169 -163.072802 -72.045225 162.546792 0.494584 12.871109 22.375648 -3.710351 -11.290903 -3.791551 -10.690695 22.515006 -72.219717 32.748633 10.664637 98.295712 -0.001363 0.0 -0.00048 -0.001472 -0.0 0.001964 -13.743189 42.431726 15.568565 67.909073 -6.715888 35.989266 -109.215071 -46.796963 76.000224 -159.936356 -9.107997 151.979715 -6.581203 6.344767 1.366087 -37.03173 23.944442 35.902259 45.284023 -63.864933 4.306741 -178.004714 -43.853448 107.432317 -82.84014 61.111186 74.532476 -170.178317 -26.297224 144.097269 -145.118346 0.309894 -179.226156 -156.89041 22.850148 178.154397 7.930091 24.811312 7.002488 0.947304 -2.87306 -1.01077 -0.057963 -0.352883 0.078293 -59.42454 13.993932 -34.390883 68.72922 -31.967082 -42.989766 -8.571384 -9.814387 -5.800278 3.029416 2.964573 -0.541262 137.041771 -40.006042 -117.033669 0.327729 0.530096 -0.184729 167.733092 -22.193106 -109.415447 0.218357 0.638771 -0.121631 -168.037727 -64.093384 -133.242109 -0.000435 0.036291 -0.011833 155.84975 -8.256814 -172.843252 -7.930731 24.811241 -7.002057 22.184121 -39.185867 22.526701 179.988094 75.750507 0.008146 152.988035 38.488631 -63.316369 -85.794899 33.317132 -179.764128 -61.718065 -31.828613 -129.173837 0.001543 -0.000865 0.002314 61.298522 -39.52474 50.339873 -14.201432 66.753585 45.378319 -147.258083 -29.772765 24.959963
